<svg version="1.2" xmlns="http://www.w3.org/2000/svg" viewBox="0 0.40157480314996974 841.8897637795 212.59842519685003" width="829" height="210">
	<title>Valid_logo</title>
	<defs>
		<linearGradient id="g1" x2="1" gradientUnits="userSpaceOnUse" gradientTransform="matrix(141.011,-141.011,264.969,264.969,-146.316,44.722)">
			<stop offset=".053" stop-color="#f0517f"/>
			<stop offset="1" stop-color="#ff821f"/>
		</linearGradient>
		<linearGradient id="g2" x2="1" gradientUnits="userSpaceOnUse" gradientTransform="matrix(141.011,-141.011,264.969,264.969,-22.825,44.722)">
			<stop offset="0" stop-color="#7b1fa2"/>
			<stop offset=".857" stop-color="#dd2cd9"/>
		</linearGradient>
		<linearGradient id="g3" x2="1" gradientUnits="userSpaceOnUse" gradientTransform="matrix(119.899,-119.899,173.615,173.615,-90.083,58.73)">
			<stop offset="0" stop-color="#000000"/>
			<stop offset="1" stop-color="#000000" stop-opacity="0"/>
		</linearGradient>
		<linearGradient id="g4" x2="1" gradientUnits="userSpaceOnUse" gradientTransform="matrix(-119.899,-119.899,-173.615,173.615,326.922,58.73)">
			<stop offset="0" stop-color="#000000"/>
			<stop offset="1" stop-color="#000000" stop-opacity="0"/>
		</linearGradient>
	</defs>
	<style>
		.s0 { fill: url(#g1) } 
		.s1 { fill: url(#g2) } 
		.s2 { opacity: .53;mix-blend-mode: overlay;fill: url(#g3) } 
		.s3 { opacity: .53;mix-blend-mode: overlay;fill: url(#g4) } 
		.s4 { fill: #e8f2f7 } 
	</style>
	<g id="Layer 1">
		<g id="&lt;Group&gt;">
			<g id="&lt;Group&gt;">
				<g id="&lt;Group&gt;">
					<g id="&lt;Group&gt;">
						<path id="&lt;Path&gt;" class="s0" d="m94.4 197.5l-63.1-41.6c-14.7-9.8-23.6-26.3-23.6-44v-90c0-4 3.3-7.2 7.3-7.2h33.1c31.8 0 57.6 25.7 57.6 57.6v119.2c0 5.7-6.5 9.2-11.3 6z"/>
						<path id="&lt;Path&gt;" class="s1" d="m142.5 197.5l63-41.6c14.8-9.8 23.6-26.3 23.6-44v-90c0-4-3.2-7.2-7.2-7.2h-33.1c-31.8 0-57.6 25.7-57.6 57.6v119.2c0 5.7 6.4 9.2 11.3 6z"/>
					</g>
				</g>
				<path id="&lt;Path&gt;" class="s2" d="m48.1 14.7h-33.1c-4 0-7.3 3.2-7.3 7.2v0.1c0 23.9 13 45.8 33.6 58 56.8 33.5 64.4 76.5 64.4 76.5v-84.2c0-31.9-25.8-57.6-57.6-57.6z"/>
				<path id="&lt;Path&gt;" class="s3" d="m188.8 14.7h33.1c4 0 7.2 3.2 7.2 7.2v0.1c0 23.9-12.9 45.8-33.5 58-56.8 33.5-64.4 76.5-64.4 76.5v-84.2c0-31.9 25.8-57.6 57.6-57.6z"/>
			</g>
			<g id="&lt;Group&gt;">
				<path id="&lt;Compound Path&gt;" class="s4" d="m438.4 40.2c0 3.9-0.8 6.5-2.9 11.2l-61.8 131.1c-4.9 10.7-12.7 15.9-22.9 15.9-10.1 0-18.1-5.2-23.1-15.9l-62.1-131.9c-1.8-3.9-2.3-7-2.3-10.1 0-12 8.1-19.3 19.8-19.3 7.7 0 14.2 4.5 17.6 12l50.4 110.4h0.5l49.9-109.1c3.9-8.6 9.1-13.3 17.7-13.3 11.4 0 19.2 7.3 19.2 19z"/>
				<path id="&lt;Compound Path&gt;" class="s4" d="m567.7 89.3v90.1c0 11.7-6.7 19-17.9 19-9.4 0-15.8-5.5-17.4-14.6h-0.5c-8.9 10.4-22.1 16.1-38.7 16.1-36.1 0-60-25.7-60-65.4 0-39.7 23.9-65.5 60-65.5 16.6 0 29.8 5.8 38.7 16.1h0.5c1.6-9.3 8-14.5 17.4-14.5 11.2 0 17.9 7 17.9 18.7zm-35.6 45.2c0-19.2-13.2-33-31.7-33-18.1 0-30.9 13.3-30.9 33 0 19.5 12.8 33 30.9 33 18.5 0 31.7-13.8 31.7-33z"/>
				<path id="&lt;Compound Path&gt;" class="s4" d="m619.9 32.4v147c0 11.7-6.7 19-17.9 19-10.9 0-17.7-7.3-17.7-19v-147c0-11.7 6.8-18.9 17.7-18.9 11.2 0 17.9 7.2 17.9 18.9z"/>
				<path id="&lt;Compound Path&gt;" class="s4" d="m644.6 34c0-12.2 8-20 20-20 12.2 0 20.2 7.8 20.2 20 0 12.2-8 20.5-20.2 20.5-12 0-20-8.3-20-20.5zm37.9 55.3v90.1c0 11.7-6.7 19-17.9 19-10.9 0-17.7-7.3-17.7-19v-90.1c0-11.7 6.8-18.7 17.7-18.7 11.2 0 17.9 7 17.9 18.7z"/>
				<path id="&lt;Compound Path&gt;" class="s4" d="m834.2 32.4v147c0 11.7-6.8 19-17.9 19-9.4 0-15.9-5.5-17.4-14.6h-0.5c-8.9 10.4-22.1 16.1-38.8 16.1-36.1 0-59.9-25.7-59.9-65.4 0-39.7 23.8-65.5 59.9-65.5 16.7 0 29.9 5.8 38.5 15.9h0.5v-52.5c0-11.7 6.8-18.9 17.7-18.9 11.1 0 17.9 7.2 17.9 18.9zm-35.6 102.1c0-19.2-13.2-33-31.7-33-18.2 0-30.9 13.3-30.9 33 0 19.5 12.7 33 30.9 33 18.5 0 31.7-13.8 31.7-33z"/>
			</g>
		</g>
	</g>
</svg>